<?xml version="1.0" encoding="utf-8"?>
<!-- Generator: Adobe Illustrator 19.0.0, SVG Export Plug-In . SVG Version: 6.00 Build 0)  -->
<svg version="1.1" id="Layer_1" xmlns="http://www.w3.org/2000/svg" xmlns:xlink="http://www.w3.org/1999/xlink" x="0px" y="0px"
	 viewBox="0 0 350 88" style="enable-background:new 0 0 350 88;" xml:space="preserve">
<style type="text/css">
	.st0{fill:#0071BC;}
	.st1{enable-background:new    ;}
	.st2{font-family:'Arial-Black';}
	.st3{font-size:13.8586px;}
</style>
<g id="XMLID_5_">
	<path id="XMLID_171_" class="st0" d="M4.8,83.9l2.7-0.2c0.1,0.4,0.2,0.8,0.4,1c0.3,0.4,0.7,0.6,1.3,0.6c0.4,0,0.7-0.1,0.9-0.3
		c0.2-0.2,0.3-0.4,0.3-0.7c0-0.2-0.1-0.5-0.3-0.6s-0.7-0.4-1.5-0.5c-1.3-0.3-2.2-0.7-2.7-1.1c-0.5-0.5-0.8-1.1-0.8-1.8
		c0-0.5,0.1-0.9,0.4-1.4c0.3-0.4,0.7-0.8,1.2-1C7.3,77.7,8,77.5,9,77.5c1.2,0,2.1,0.2,2.7,0.7c0.6,0.4,1,1.1,1.1,2.1l-2.7,0.2
		c-0.1-0.4-0.2-0.7-0.5-0.9c-0.2-0.2-0.5-0.3-1-0.3c-0.3,0-0.6,0.1-0.8,0.2s0.1,0.3,0.1,0.5c0,0.1,0.1,0.3,0.2,0.4s0.5,0.2,1,0.3
		c1.3,0.3,2.2,0.5,2.7,0.8s0.9,0.6,1.2,1c0.2,0.4,0.4,0.9,0.4,1.4c0,0.6-0.2,1.1-0.5,1.7c-0.3,0.5-0.8,0.9-1.4,1.1
		c-0.6,0.3-1.3,0.4-2.2,0.4c-1.6,0-2.7-0.3-3.3-0.9S4.9,84.9,4.8,83.9z"/>
	<path id="XMLID_173_" class="st0" d="M14.8,77.7h2.9v3.5l3-3.5h3.8l-3.4,3.5l3.5,5.8h-3.5l-2-3.8l-1.5,1.6V87h-2.9L14.8,77.7
		L14.8,77.7z"/>
</g>
<image style="overflow:visible;enable-background:new    ;" width="228" height="211" id="XMLID_3_" xlink:href="3E16E917F3379A6E.png"  transform="matrix(0.4185 0 0 0.4162 7.812189e-03 -0.1841)">
</image>
<path id="XMLID_133_" class="st0" d="M202,57.9l2.4,0.7c-0.2,0.6-0.4,1.2-0.8,1.6c-0.4,0.5-0.8,0.7-1.3,1c-0.5,0.2-1.1,0.4-2,0.4
	c-1,0-1.7-0.1-2.4-0.4c-0.6-0.3-1.1-0.7-1.6-1.5c-0.5-0.6-0.7-1.5-0.7-2.5c0-1.4,0.4-2.5,1.1-3.2c0.8-0.7,1.9-1.1,3.3-1.1
	c1.1,0,2,0.2,2.7,0.6c0.7,0.5,1.1,1.1,1.4,2l-2.4,0.5c-0.1-0.3-0.2-0.5-0.3-0.5c-0.2-0.2-0.4-0.4-0.6-0.5c-0.2-0.1-0.5-0.2-0.8-0.2
	c-0.7,0-1.1,0.3-1.4,0.7c-0.3,0.4-0.4,0.9-0.4,1.6c0,0.9,0.2,1.5,0.5,1.9s0.8,0.5,1.2,0.5c0.5,0,1-0.2,1.1-0.5
	C201.4,59.1,201.9,58.5,202,57.9z"/>
<path id="XMLID_135_" class="st0" d="M211.3,59.9h-3.2l-0.5,1.4h-2.8l3.3-8.4h3l3.3,8.4h-2.9L211.3,59.9z M210.7,58.1l-1-3l-1,3
	H210.7z"/>
<path id="XMLID_138_" class="st0" d="M215.4,52.9h3.6l1.4,5.2l1.3-5.2h3.6v8.4H223v-6.4l-1.7,6.4h-2l-1.7-6.4v6.4h-2.3L215.4,52.9
	L215.4,52.9z"/>
<path id="XMLID_140_" class="st0" d="M227.1,52.9h5.2c0.9,0,1.5,0.2,2,0.6c0.5,0.4,0.7,0.9,0.7,1.5c0,0.5-0.2,0.9-0.5,1.3
	c-0.2,0.3-0.6,0.5-1,0.5c0.7,0.2,1.1,0.4,1.4,0.7c0.3,0.4,0.5,0.8,0.5,1.4c0,0.5-0.1,0.8-0.3,1.2s-0.5,0.6-0.9,0.8
	c-0.2,0.1-0.6,0.2-1.1,0.3c-0.6,0.1-1.1,0.1-1.2,0.1h-4.8L227.1,52.9L227.1,52.9z M229.9,56.2h1.1c0.4,0,0.8-0.1,0.9-0.2
	c0.1-0.1,0.3-0.4,0.3-0.6c0-0.3-0.1-0.5-0.3-0.5c-0.2-0.1-0.5-0.2-0.9-0.2h-1.2L229.9,56.2L229.9,56.2z M229.9,59.6h1.4
	c0.5,0,0.8-0.1,1-0.3s0.3-0.4,0.3-0.6c0-0.3-0.1-0.5-0.3-0.6s-0.6-0.3-1.1-0.3h-1.4L229.9,59.6L229.9,59.6z"/>
<path id="XMLID_144_" class="st0" d="M236.5,57.1c0-1.4,0.4-2.5,1.2-3.2s1.9-1.2,3.3-1.2s2.6,0.4,3.4,1.1c0.8,0.7,1.2,1.8,1.2,3.2
	c0,1-0.2,1.8-0.5,2.5c-0.3,0.6-0.9,1.1-1.5,1.5c-0.7,0.4-1.5,0.5-2.5,0.5s-1.8-0.2-2.5-0.5s-1.1-0.8-1.6-1.5
	C236.7,58.9,236.5,58.1,236.5,57.1z M239.3,57.1c0,0.8,0.2,1.5,0.5,1.8c0.3,0.4,0.8,0.5,1.3,0.5c0.6,0,1.1-0.2,1.3-0.5
	c0.3-0.4,0.5-1,0.5-2c0-0.8-0.2-1.4-0.5-1.7s-0.8-0.5-1.3-0.5s-1,0.2-1.3,0.5C239.4,55.7,239.3,56.3,239.3,57.1z"/>
<path id="XMLID_147_" class="st0" d="M247.2,52.9h4.1c0.8,0,1.4,0.1,1.9,0.3s0.9,0.5,1.2,0.9s0.6,0.8,0.7,1.4s0.2,1.1,0.2,1.6
	c0,0.9-0.1,1.6-0.3,2.1s-0.5,0.9-0.9,1.3c-0.4,0.4-0.8,0.5-1.2,0.6c-0.6,0.2-1.1,0.3-1.6,0.3h-4.1L247.2,52.9L247.2,52.9z M250,54.8
	v4.6h0.7c0.6,0,1-0.1,1.2-0.2c0.3-0.1,0.5-0.4,0.6-0.6c0.1-0.3,0.2-0.8,0.2-1.5c0-0.9-0.2-1.5-0.5-1.8c-0.3-0.4-0.9-0.5-1.5-0.5H250
	L250,54.8z"/>
<path id="XMLID_150_" class="st0" d="M256.9,52.9h2.8v8.4h-2.8V52.9z"/>
<path id="XMLID_152_" class="st0" d="M267.2,59.9H264l-0.5,1.4h-2.8l3.3-8.4h3l3.3,8.4h-2.9L267.2,59.9z M266.6,58.1l-1-3l-1,3
	H266.6z"/>
<path id="XMLID_155_" class="st0" d="M277.3,52h2.4v7h3.7v2.3h-6.1V52z"/>
<path id="XMLID_157_" class="st0" d="M289.2,59.7h-2.7l-0.4,1.5h-2.4l2.9-9.3h2.6l2.9,9.3h-2.5L289.2,59.7z M288.7,57.7l-0.8-3.3
	l-0.8,3.3H288.7z"/>
<path id="XMLID_160_" class="st0" d="M292.1,52h2.2l0.8,5.2l1.2-5.2h2.2l1.2,5.2l0.8-5.2h2.2l-1.7,9.3h-2.3l-1.3-5.9l-1.3,5.9h-2.3
	L292.1,52z"/>
<g id="XMLID_7_" class="st1">
	<path id="XMLID_127_" class="st0" d="M201.7,70.5c-0.3,0-0.5,0-0.7,0s-0.3,0-0.5,0s-0.2,0-0.3,0s-0.2,0-0.3-0.1
		c-0.3-0.1-0.5-0.2-0.5-0.3c0-0.1,0.2-0.2,0.5-0.2s0.6,0,0.8-0.1c0.3,0,0.6-0.1,0.9-0.2c0-0.6-0.1-1-0.2-1.2
		c-0.1-0.3-0.2-0.5-0.3-0.6c-0.3-0.3-0.3-0.5-0.2-0.6s0.5-0.1,1.1,0.1c0.3,0.1,0.5,0.2,0.6,0.2c0.1,0.1,0.2,0.1,0.3,0.2
		s0.1,0.2,0,0.2c0,0.1-0.1,0.2-0.1,0.3c0,0.1-0.1,0.2-0.1,0.3c0,0.1-0.1,0.4-0.1,0.7c0.3-0.1,0.5-0.2,0.7-0.2s0.3-0.1,0.5-0.1
		c0.1,0,0.3,0,0.4,0s0.3,0,0.4,0c0.4,0.1,0.6,0.2,0.6,0.4c0,0.2-0.3,0.4-0.8,0.5c-0.4,0.1-0.7,0.2-1,0.2c-0.3,0.1-0.5,0.1-0.8,0.2
		c0,0.1,0,0.3,0,0.5s0,0.3,0,0.5c0.5-0.1,1-0.2,1.4-0.3c0.4-0.1,0.6-0.1,0.7-0.2c0.2-0.1,0.3-0.1,0.4-0.2c0.1,0,0.2-0.1,0.4,0
		s0.3,0,0.4,0.1c0.2,0.1,0.3,0.2,0.6,0.3c0.4,0.2,0.7,0.4,0.7,0.6s-0.1,0.3-0.4,0.4c-0.2,0.1-0.4,0.3-0.6,0.5
		c-0.2,0.2-0.3,0.5-0.5,0.9c0.2,0.2,0.3,0.4,0.2,0.6c-0.1,0.1-0.4,0.2-1,0.2c-0.8,0-1.7,0.1-2.5,0.2v0.1c0.7,0.5,1.3,1,1.8,1.4
		s1.1,0.7,1.5,1s0.9,0.5,1.3,0.6s0.8,0.3,1.2,0.4c0.7,0.1,1.1,0.3,1.1,0.4s-0.4,0.3-1.1,0.4c-0.5,0.1-1,0.2-1.3,0.2s-0.6,0-0.8,0
		s-0.4-0.1-0.5-0.2s-0.3-0.2-0.4-0.4c-0.5-0.6-1.1-1.1-1.5-1.6c-0.5-0.5-0.9-1-1.3-1.4c0,0.4,0,0.8,0,1.2s0,0.8,0,1.3
		c0,0.3,0,0.5,0,0.7s0,0.4,0,0.6s0,0.4,0,0.5c0,0.2,0,0.4-0.1,0.7c0,0.3-0.1,0.4-0.3,0.4s-0.4-0.1-0.6-0.3c-0.1-0.2-0.2-0.4-0.3-0.5
		s-0.1-0.3-0.1-0.4s0-0.3,0.1-0.5s0.1-0.4,0.2-0.6c0-0.1,0-0.1,0.1-0.3s0-0.3,0.1-0.5s0-0.5,0-0.8s0-0.7,0-1.2
		c-0.3,0.5-0.6,0.9-1,1.3c-0.3,0.4-0.7,0.7-1.1,1c-0.4,0.3-0.8,0.5-1.3,0.8c-0.5,0.2-1,0.4-1.5,0.6c-0.4,0.1-0.6,0.2-0.6,0.1
		s0.1-0.2,0.4-0.4c1-0.6,1.9-1.2,2.7-1.9s1.4-1.5,2-2.4c-0.2,0-0.5,0.1-0.7,0.1s-0.4,0.1-0.7,0.1c-0.1,0.2-0.2,0.3-0.4,0.3
		s-0.3-0.2-0.4-0.7c-0.1-0.2-0.1-0.4-0.2-0.7c-0.1-0.2-0.2-0.5-0.3-0.7s-0.2-0.4-0.3-0.6s-0.2-0.3-0.3-0.4s-0.2-0.2-0.2-0.3
		c0-0.1,0-0.2,0.1-0.2c0.1-0.1,0.2-0.1,0.4-0.1s0.4,0,0.7,0.1c0.4,0,0.8-0.1,1.3-0.2s0.9-0.1,1.4-0.2c0-0.2,0-0.4,0-0.5
		C201.7,70.8,201.7,70.6,201.7,70.5z M199.9,74.4c0.4,0,0.7-0.1,1-0.1c0.3-0.1,0.6-0.1,0.8-0.2V72c-0.4,0.1-0.8,0.1-1.1,0.2
		s-0.7,0.1-1.1,0.2c0,0.2,0.1,0.3,0.1,0.5s0.1,0.4,0.1,0.5s0.1,0.3,0.1,0.5C199.8,74.1,199.9,74.3,199.9,74.4z M201.3,73.5
		c0,0.1,0,0.2,0,0.3c0,0.1-0.1,0.1-0.2,0.2c-0.1,0-0.1,0-0.2,0c-0.1,0-0.1-0.1-0.2-0.1c-0.1-0.1-0.2-0.2-0.3-0.4
		c-0.1-0.1-0.2-0.3-0.3-0.4c-0.1-0.2-0.1-0.3-0.1-0.4s0.2-0.1,0.5,0s0.5,0.2,0.6,0.3C201.3,73.2,201.3,73.3,201.3,73.5z M202.6,74
		c0.3,0,0.6-0.1,0.8-0.1s0.4-0.1,0.5-0.1s0.3,0,0.4,0c0.1,0,0.3,0,0.4,0c0.1-0.1,0.1-0.2,0.2-0.4c0-0.1,0.1-0.2,0.1-0.3
		s0.1-0.2,0.1-0.4c0-0.1,0.1-0.3,0.1-0.5c0.1-0.2,0-0.4,0-0.4c-0.1-0.1-0.2-0.1-0.5-0.1c-0.2,0-0.4,0-0.7,0.1
		c-0.3,0-0.7,0.1-1.3,0.2c0,0.3,0,0.6,0,0.9S202.6,73.6,202.6,74z M204.4,72.7c0,0-0.1,0-0.1,0.1c0,0-0.1,0.1-0.2,0.1
		c-0.1,0.1-0.2,0.1-0.3,0.2s-0.3,0.2-0.5,0.4c-0.2,0.2-0.4,0.2-0.4,0.2c-0.1-0.1,0-0.2,0.1-0.4c0.1-0.2,0.2-0.4,0.3-0.5
		c0-0.1,0-0.3,0-0.4s0-0.2,0.1-0.3c0.1-0.1,0.3,0,0.5,0.1c0.3,0.1,0.5,0.3,0.6,0.4C204.6,72.5,204.6,72.6,204.4,72.7z"/>
</g>
<g id="XMLID_9_" class="st1">
	<path id="XMLID_123_" class="st0" d="M220.8,75.8c0.4-0.2,0.7-0.4,0.9-0.5s0.4-0.2,0.6-0.3c0.1-0.1,0.2-0.1,0.3-0.1s0.1,0,0.1,0
		s0,0.1-0.1,0.2s-0.2,0.3-0.5,0.4c-0.3,0.2-0.6,0.5-0.9,0.7c-0.3,0.2-0.5,0.4-0.7,0.6s-0.4,0.4-0.6,0.6c-0.2,0.2-0.4,0.4-0.6,0.6
		c-0.1,0.1-0.1,0.1-0.2,0.2s-0.1,0-0.2,0c-0.1,0-0.2,0-0.3-0.1c-0.1,0-0.3-0.1-0.5-0.2c-0.4-0.2-0.6-0.4-0.6-0.6
		c0-0.1,0.2-0.2,0.7-0.3c0.1,0,0.3,0,0.4-0.1c0.1,0,0.2-0.1,0.4-0.1c0.1-0.1,0.3-0.1,0.5-0.2s0.4-0.2,0.6-0.4v-2.7
		c-0.3,0-0.5,0-0.7,0s-0.4,0-0.6-0.1c-0.3-0.1-0.4-0.1-0.4-0.3s0.2-0.2,0.5-0.2c0.1,0,0.3,0,0.5-0.1c0.2,0,0.4-0.1,0.7-0.2
		c0-0.6,0-1.1,0-1.6c0-0.4,0-0.7-0.1-1c0-0.3-0.1-0.5-0.1-0.6s-0.1-0.3-0.2-0.3c-0.3-0.3-0.3-0.5-0.2-0.6s0.4-0.1,0.8,0
		c0.3,0.1,0.6,0.2,0.8,0.3c0.2,0.1,0.3,0.2,0.4,0.2c0.1,0.1,0.1,0.2,0.1,0.3c0,0.1-0.1,0.2-0.1,0.4c-0.1,0.1-0.1,0.3-0.1,0.4
		s-0.1,0.3-0.1,0.4c0,0.2,0,0.4-0.1,0.7c0,0.3,0,0.6,0,1c0.2-0.1,0.4-0.2,0.6-0.2c0.1,0,0.3,0,0.4,0c0.4,0.1,0.6,0.2,0.6,0.4
		c0,0.1-0.1,0.3-0.4,0.4c-0.2,0.1-0.4,0.2-0.6,0.2c-0.2,0.1-0.4,0.1-0.6,0.2L220.8,75.8z M225.2,71.9c-0.2,0-0.4,0.1-0.6,0.1
		c-0.2,0-0.4,0.1-0.6,0.1c-0.4,0.1-0.7,0.1-0.9,0.1s-0.4-0.1-0.6-0.2c-0.3-0.2-0.4-0.3-0.4-0.4s0.2-0.1,0.5-0.1
		c0.4,0,0.7-0.1,1.1-0.1c0.4-0.1,0.8-0.1,1.3-0.2c0-0.4,0-0.8,0-1.1c0-0.3,0-0.6-0.1-0.8c0-0.2-0.1-0.4-0.1-0.6s-0.1-0.3-0.2-0.4
		c-0.2-0.3-0.3-0.5-0.2-0.6s0.4-0.1,0.9,0c0.2,0.1,0.5,0.2,0.6,0.2c0.1,0.1,0.3,0.2,0.3,0.2s0.1,0.2,0.1,0.3c0,0.1,0,0.2-0.1,0.4
		c0,0.1,0,0.1-0.1,0.2c0,0.1,0,0.2,0,0.4c0,0.2,0,0.4,0,0.6s0,0.5,0,0.9c0.4-0.1,0.8-0.2,1.2-0.3c0.4-0.1,0.7-0.2,1-0.2
		c0.2,0,0.4-0.1,0.6-0.1s0.3,0,0.4,0c0.1,0,0.2,0,0.4,0.1c0.1,0,0.2,0.1,0.3,0.2c0.2,0.1,0.4,0.2,0.4,0.4c0.1,0.1,0.1,0.2,0,0.3
		c-0.1,0.1-0.2,0.1-0.4,0.2c-0.2,0-0.5,0-0.8,0c-0.1,0-0.3,0-0.5,0s-0.4,0-0.6,0c-0.2,0-0.5,0-0.9,0.1s-0.7,0.1-1.2,0.1V73
		c0.3-0.1,0.5-0.1,0.7-0.2c0.2,0,0.3-0.1,0.4-0.1c0.1-0.1,0.2-0.1,0.3-0.1s0.2,0,0.3,0s0.2,0,0.3,0.1s0.3,0.1,0.5,0.2
		c0.3,0.2,0.5,0.3,0.6,0.5c0,0.1,0,0.3-0.1,0.5c0,0.1-0.1,0.2-0.1,0.3c0,0.1,0,0.3,0,0.5s0,0.4,0,0.7c0,0.3,0,0.6,0.1,1
		c0.1,0.7,0.1,1.2,0.2,1.7c0,0.4,0,0.8,0,1c0,0.3-0.1,0.5-0.2,0.7c-0.1,0.2-0.2,0.4-0.3,0.6c-0.2,0.3-0.3,0.4-0.5,0.4
		s-0.3-0.1-0.4-0.4c-0.1-0.2-0.1-0.3-0.3-0.5s-0.3-0.4-0.6-0.7c-0.3-0.2-0.4-0.4-0.3-0.5c0-0.1,0.2-0.1,0.5,0c0.2,0,0.3,0.1,0.5,0.1
		c0.1,0,0.2,0,0.3-0.1c0.1,0,0.1-0.1,0.1-0.2s0-0.2,0-0.3c0-0.6,0-1.2,0-1.9s-0.1-1.4-0.2-2.1c0-0.2-0.1-0.4-0.2-0.4
		c-0.1,0-0.2-0.1-0.5,0c-0.2,0-0.3,0-0.5,0.1c-0.2,0-0.3,0-0.5,0.1c0,0.2,0,0.3,0,0.5s0,0.3,0,0.5c0.2,0,0.4-0.1,0.6-0.1
		c0.2,0,0.3,0,0.4,0.1c0.2,0.1,0.3,0.2,0.3,0.3c0,0.1-0.1,0.2-0.4,0.3c-0.1,0-0.2,0.1-0.4,0.1s-0.3,0.1-0.5,0.1v0.9
		c0.2-0.1,0.4-0.1,0.6-0.1c0.2,0,0.4,0,0.4,0.1c0.2,0.1,0.3,0.2,0.3,0.3s-0.1,0.2-0.4,0.3c-0.1,0-0.3,0.1-0.4,0.1
		c-0.2,0-0.4,0.1-0.5,0.1c0,0.6,0,1.1-0.1,1.5c0,0.4-0.1,0.7-0.2,1c-0.1,0.5-0.2,0.7-0.4,0.7c-0.1,0-0.2-0.2-0.3-0.7
		c0-0.3,0-0.6,0-1c0-0.3,0-0.8,0-1.3c-0.1,0-0.2,0-0.3,0s-0.2,0-0.3,0c-0.4-0.1-0.5-0.1-0.5-0.3c0-0.1,0.2-0.2,0.5-0.2
		c0.1,0,0.2,0,0.3-0.1c0.1,0,0.2,0,0.3-0.1v-1c-0.3,0-0.5,0-0.6,0c-0.4-0.1-0.5-0.1-0.5-0.3s0.2-0.2,0.5-0.2c0.1,0,0.3,0,0.4-0.1
		c0.1,0,0.2,0,0.3-0.1v-1.1c-0.2,0-0.4,0.1-0.6,0.1s-0.4,0.1-0.7,0.1c0,1.3-0.1,2.4-0.1,3.3c-0.1,0.9-0.2,1.5-0.3,2
		c-0.1,0.3-0.2,0.5-0.4,0.5s-0.3-0.2-0.5-0.5c-0.1-0.2-0.2-0.5-0.2-0.6c0-0.2,0.1-0.4,0.2-0.6c0.1-0.2,0.2-0.4,0.2-0.7
		c0.1-0.3,0.1-0.8,0.1-1.3c0-0.6,0-1,0-1.4s-0.1-0.6-0.3-0.9c-0.1-0.2-0.1-0.4,0-0.5s0.5,0,1,0.1c0.2,0,0.5-0.1,0.7-0.1
		s0.5-0.1,0.8-0.1L225.2,71.9L225.2,71.9z M228.9,69.6c0,0.3,0,0.4-0.1,0.6c-0.1,0.1-0.3,0.1-0.5,0s-0.4-0.2-0.6-0.4
		s-0.4-0.3-0.6-0.5c-0.2-0.2-0.3-0.4-0.3-0.5s0.2-0.1,0.5-0.1c0.5,0,0.9,0,1.1,0.2S228.8,69.3,228.9,69.6z"/>
</g>
<g id="XMLID_10_" class="st1">
	<path id="XMLID_114_" class="st0" d="M243,71.9c-0.3,0-0.5,0-0.7,0s-0.4-0.1-0.5-0.2c-0.4-0.2-0.3-0.3,0.3-0.3c0.1,0,0.2,0,0.4,0
		s0.3,0,0.5-0.1c0-0.1,0-0.2-0.1-0.3c0-0.1-0.1-0.2-0.1-0.2c-0.2-0.2-0.2-0.4-0.2-0.5c0.1-0.1,0.3-0.1,0.6,0c0.3,0,0.5,0.1,0.6,0.2
		s0.1,0.2,0.1,0.3c0,0.1,0,0.2,0,0.3c0.3,0,0.5-0.1,0.8-0.1s0.5-0.1,0.8-0.1c0-0.1,0-0.3-0.1-0.4c0-0.1-0.1-0.2-0.1-0.3
		c-0.1-0.2-0.1-0.3,0-0.4s0.3,0,0.7,0.1c0.3,0.1,0.5,0.2,0.6,0.3c0.1,0.1,0.1,0.2,0,0.3c0,0,0,0,0,0.1v0.1c0.2,0,0.3-0.1,0.4-0.1
		c0.1,0,0.2,0,0.3,0s0.1,0,0.2,0c0.1,0,0.1,0,0.2,0.1c0.3,0.1,0.4,0.2,0.4,0.4c0,0.1-0.2,0.2-0.5,0.2c-0.1,0-0.2,0-0.4,0
		s-0.4,0-0.7,0.1l-0.1,0.7c0.2,0,0.4-0.1,0.6-0.1s0.3,0,0.5,0.1s0.3,0.2,0.2,0.3c0,0.1-0.2,0.2-0.7,0.3c-0.1,0-0.4,0.1-0.7,0.1
		l-0.1,0.7c0.4-0.1,0.8-0.2,1.1-0.2s0.5-0.1,0.7-0.1s0.4,0,0.5,0.1c0.1,0,0.3,0.1,0.4,0.2c0.2,0.1,0.3,0.2,0.3,0.3
		c0.1,0.1,0.1,0.2,0,0.2c-0.1,0.1-0.2,0.1-0.4,0.1s-0.5,0-0.9,0c-0.1,0-0.3,0-0.6,0s-0.7,0-1.1,0c0.7,0.5,1.3,0.9,1.8,1.2
		c0.5,0.3,0.9,0.5,1.3,0.7c0.4,0.2,0.7,0.3,1,0.4s0.7,0.2,1.1,0.3c0.3,0.1,0.5,0.2,0.5,0.3c0,0.1-0.2,0.2-0.5,0.2
		c-0.5,0.1-1,0.1-1.3,0.1s-0.6,0-0.8,0s-0.3-0.1-0.5-0.1c-0.1-0.1-0.3-0.2-0.4-0.3c-0.5-0.4-1-0.9-1.4-1.3c-0.5-0.5-1-1-1.5-1.5
		c-0.4,0-0.8,0-1.1,0.1s-0.7,0.1-1,0.1c0.2,0.2,0.3,0.4,0.3,0.5s0,0.2-0.1,0.2c-0.4,0.4-0.8,0.8-1.2,1.1c-0.4,0.3-0.7,0.6-1.1,0.8
		c-0.4,0.2-0.7,0.4-1.1,0.6c-0.4,0.2-0.8,0.3-1.2,0.4s-0.6,0.1-0.6,0s0.1-0.2,0.5-0.4c0.3-0.2,0.6-0.4,0.9-0.5
		c0.2-0.2,0.5-0.3,0.7-0.4s0.4-0.3,0.6-0.5c0.2-0.2,0.4-0.3,0.6-0.5c0.5-0.5,0.7-0.9,0.7-1.2c-0.4,0-0.6,0.1-0.8,0.1s-0.4,0-0.5,0
		s-0.3,0-0.3-0.1c-0.1,0-0.2-0.1-0.2-0.1c-0.2-0.1-0.2-0.2-0.2-0.3c0-0.1,0.2-0.1,0.6-0.1c0,0,0.1,0,0.3,0c0.1,0,0.3,0,0.5,0
		s0.4,0,0.7-0.1s0.5-0.1,0.8-0.1v-0.8c-0.4,0-0.7,0-0.8-0.1c-0.3-0.1-0.4-0.2-0.4-0.3c0-0.1,0.2-0.1,0.5-0.1c0.1,0,0.2,0,0.3,0
		s0.2,0,0.3,0L243,71.9z M241.5,69.6c0.2,0,0.5,0,0.9-0.1c0.3,0,0.7-0.1,1-0.1c0.4,0,0.7-0.1,1-0.1s0.6-0.1,0.8-0.1
		c0.3,0,0.6-0.1,0.9-0.1c0.3,0,0.6-0.1,0.9-0.1s0.5-0.1,0.7-0.1s0.3-0.1,0.4-0.1c0.2-0.1,0.3-0.1,0.4-0.1c0.1,0,0.2,0,0.4,0
		s0.3,0.1,0.4,0.2c0.1,0.1,0.3,0.2,0.5,0.4c0.5,0.4,0.8,0.7,0.8,0.9s-0.2,0.3-0.5,0.3c-0.2,0-0.5,0-0.8,0.1s-0.6,0.2-0.9,0.3
		c-0.3,0.2-0.4,0.2-0.5,0.1s0-0.2,0.1-0.4c0.2-0.3,0.3-0.5,0.3-0.6s-0.1-0.2-0.4-0.2c-0.2,0-0.6,0-1,0s-0.9,0.1-1.4,0.1
		s-1,0.1-1.4,0.2c-0.5,0.1-0.8,0.1-1.1,0.1c-0.4,0.1-0.7,0.1-1,0.1c-0.2,0-0.5,0-0.7,0c-0.1,0.3-0.1,0.6-0.3,0.8s-0.3,0.4-0.5,0.6
		c-0.3,0.3-0.5,0.4-0.6,0.4c-0.2,0-0.3-0.2-0.3-0.5c0-0.2,0-0.3-0.1-0.4c0-0.1,0-0.2,0-0.2c0-0.1,0-0.1,0.1-0.2s0.1-0.1,0.2-0.2
		c0.2-0.1,0.3-0.3,0.5-0.5c0.1-0.2,0.3-0.4,0.3-0.6c0.1-0.2,0.2-0.4,0.3-0.3S241.3,69.3,241.5,69.6z M242.6,78c0,0.2,0,0.4,0,0.6
		s0,0.3-0.1,0.5c-0.1,0.1-0.1,0.3-0.2,0.4s-0.2,0.3-0.3,0.4c-0.4,0.4-0.6,0.3-0.7-0.2c-0.1-0.3-0.1-0.5,0-0.6s0.2-0.2,0.3-0.4
		c0.1-0.1,0.2-0.1,0.3-0.3c0.1-0.1,0.2-0.3,0.3-0.6c0.1-0.2,0.2-0.3,0.3-0.3C242.5,77.6,242.6,77.7,242.6,78z M245.3,76.4
		c0.4-0.1,0.8-0.2,1-0.2s0.5,0,0.6,0.1c0.2,0.1,0.3,0.2,0.3,0.4c0,0.1-0.2,0.2-0.5,0.3c-0.1,0-0.3,0-0.5,0.1c-0.3,0-0.6,0.1-0.9,0.1
		c0,0.2,0,0.5,0,0.8s0,0.7,0,1.2c0,0.3,0,0.5,0,0.7s-0.1,0.4-0.3,0.6c-0.1,0.2-0.3,0.3-0.4,0.3c-0.1,0-0.2-0.1-0.3-0.4
		c-0.2-0.3-0.4-0.7-0.9-1c-0.2-0.1-0.2-0.2-0.2-0.3c0-0.1,0.2-0.1,0.5,0c0.1,0,0.2,0,0.3,0s0.1,0,0.2-0.1c0,0,0.1-0.1,0.1-0.2
		s0-0.3,0-0.4c0-0.2,0-0.4,0-0.6s0-0.4,0-0.5c-0.1,0-0.3,0-0.4,0c-0.1,0-0.2,0-0.3,0c-0.3,0-0.5,0-0.7,0s-0.4-0.1-0.5-0.1
		c-0.2-0.1-0.3-0.1-0.3-0.2s0.1-0.2,0.4-0.2c0.2,0,0.5,0,0.8-0.1c0.3,0,0.6-0.1,1-0.1c0-0.3-0.1-0.5-0.1-0.6s-0.1-0.3-0.2-0.4
		c-0.2-0.2-0.2-0.4-0.1-0.5c0.1-0.1,0.4,0,0.8,0.1c0.2,0.1,0.4,0.1,0.5,0.2c0.1,0,0.2,0.1,0.2,0.2s0.1,0.1,0,0.2
		c0,0.1,0,0.2-0.1,0.3C245.3,76.2,245.3,76.2,245.3,76.4C245.3,76.2,245.3,76.3,245.3,76.4z M244.1,67.5c0.6,0,1,0.1,1.2,0.2
		c0.2,0.2,0.4,0.4,0.4,0.7c0,0.3,0,0.5-0.2,0.6s-0.4,0.1-0.6,0c-0.3-0.2-0.5-0.3-0.7-0.5s-0.3-0.3-0.5-0.5s-0.2-0.3-0.2-0.4
		C243.6,67.5,243.7,67.5,244.1,67.5z M245.4,71.6c-0.3,0-0.6,0.1-0.9,0.1s-0.5,0.1-0.8,0.1v0.8c0.3,0,0.6-0.1,0.8-0.1
		c0.3,0,0.5-0.1,0.8-0.1L245.4,71.6z M245.4,73c-0.3,0-0.5,0.1-0.8,0.1s-0.5,0-0.8,0.1V74c0.3,0,0.5-0.1,0.8-0.1s0.5-0.1,0.7-0.1
		L245.4,73z M248.4,79c0.1,0.4,0,0.7-0.2,0.8c-0.2,0.1-0.4,0-0.8-0.3c-0.2-0.2-0.4-0.4-0.6-0.6c-0.2-0.2-0.4-0.4-0.5-0.7
		c-0.2-0.2-0.2-0.4-0.2-0.5s0.2-0.1,0.5,0s0.6,0.2,0.8,0.2c0.2,0.1,0.4,0.2,0.5,0.3s0.2,0.2,0.3,0.3S248.4,78.9,248.4,79z"/>
</g>
<g id="XMLID_12_" class="st1">
	<path id="XMLID_108_" class="st0" d="M262.1,74.7c-0.7,0.8-1.6,1.4-2.5,1.8c-0.4,0.2-0.7,0.2-0.7,0.2c0-0.1,0.1-0.2,0.4-0.5
		c0.3-0.2,0.6-0.5,0.9-0.8s0.5-0.5,0.7-0.8c0.6-0.7,1.1-1.3,1.4-1.8s0.5-0.8,0.4-1c0-0.3,0-0.5,0.1-0.5s0.3,0.1,0.7,0.3
		c0.3,0.2,0.5,0.4,0.5,0.6c0,0.1-0.1,0.3-0.3,0.4c-0.1,0.1-0.2,0.2-0.4,0.4c-0.2,0.2-0.5,0.5-0.8,0.9c0.1,0.1,0.1,0.2,0.2,0.3
		c0,0.1,0.1,0.2,0.1,0.4c0,0.2,0,0.3,0.1,0.6c0,0.2,0,0.5,0,0.9c0,0.1,0,0.2,0,0.4s0,0.3,0,0.5s0,0.4,0,0.5s0,0.3,0,0.4
		c0,0.4-0.1,0.7-0.1,1c0,0.2-0.1,0.5-0.2,0.7c0,0.2-0.2,0.2-0.3,0.2s-0.3-0.1-0.4-0.2c-0.1-0.2-0.2-0.3-0.2-0.4s-0.1-0.2-0.1-0.4
		s0-0.3,0.1-0.4c0-0.2,0.1-0.3,0.2-0.6c0-0.1,0.1-0.3,0.1-0.6s0.1-0.5,0.1-0.8s0-0.6,0-0.9C262.2,75.2,262.2,75,262.1,74.7z
		 M263.9,69.9c-0.1,0-0.1,0.1-0.2,0.1s-0.1,0.1-0.2,0.2s-0.2,0.1-0.2,0.2c-0.1,0.1-0.2,0.2-0.4,0.4c-0.2,0.2-0.4,0.4-0.6,0.5
		c-0.2,0.2-0.3,0.3-0.5,0.4s-0.3,0.2-0.5,0.4c-0.2,0.1-0.4,0.2-0.6,0.3c-0.3,0.2-0.5,0.2-0.6,0.1c0-0.1,0.1-0.3,0.4-0.5
		c0.2-0.2,0.5-0.4,0.8-0.7c0.3-0.3,0.6-0.7,0.8-1.1c0.2-0.3,0.4-0.6,0.5-0.8c0.1-0.2,0.1-0.3,0.1-0.5c0-0.3,0-0.5,0.2-0.5
		s0.4,0.1,0.8,0.4c0.3,0.3,0.5,0.5,0.5,0.6C264.3,69.6,264.2,69.8,263.9,69.9z M266.7,70.6c-0.3,0.1-0.5,0.1-0.6,0.1
		c-0.2,0-0.3,0-0.4,0s-0.2,0-0.3-0.1c-0.1,0-0.2-0.1-0.3-0.1c-0.2-0.1-0.3-0.2-0.3-0.3c0-0.1,0.2-0.1,0.5-0.1c0.2,0,0.4,0,0.6-0.1
		c0.2,0,0.5,0,0.7-0.1c0-0.3,0-0.5,0-0.8c0-0.2,0-0.4-0.1-0.5c0-0.1-0.1-0.2-0.1-0.3s-0.1-0.2-0.1-0.2c-0.3-0.4-0.4-0.6-0.3-0.7
		s0.5,0,1.1,0.2c0.3,0.1,0.5,0.2,0.6,0.2c0.1,0.1,0.2,0.1,0.3,0.2c0,0.1,0.1,0.2,0,0.3c0,0.1-0.1,0.2-0.2,0.4c0,0,0,0.1-0.1,0.3
		c0,0.1,0,0.4-0.1,0.8c0.4-0.1,0.7-0.1,0.8-0.2s0.3-0.1,0.4-0.2s0.2-0.1,0.2-0.1c0.1,0,0.1,0,0.2,0s0.2,0,0.3,0.1
		c0.1,0,0.2,0.1,0.4,0.2c0.4,0.2,0.6,0.4,0.6,0.5s0,0.2-0.2,0.4c-0.1,0.1-0.1,0.1-0.2,0.2s-0.1,0.2-0.2,0.4c0.3-0.1,0.6-0.1,0.8-0.2
		s0.4-0.1,0.5-0.1c0.2,0,0.3,0,0.4,0.1s0.2,0.1,0.3,0.2c0.1,0.1,0.2,0.2,0.3,0.3s0,0.2,0,0.2c-0.1,0.1-0.2,0.1-0.4,0.1
		c-0.2,0-0.4,0-0.8,0c-0.2,0-0.4,0-0.6,0c-0.3,0-0.5,0-0.9,0.1c-0.1,0.4-0.2,0.6-0.2,0.7s0,0.2,0,0.2c0.2,0.2,0.3,0.3,0.3,0.5
		c0,0.1-0.3,0.2-0.7,0.3c-0.2,0-0.4,0-0.7,0.1s-0.6,0.1-0.9,0.1v1c0.4-0.1,0.8-0.2,1-0.2s0.5,0,0.6,0c0.3,0.1,0.5,0.2,0.4,0.4
		c0,0.2-0.3,0.3-0.8,0.3c-0.2,0-0.4,0.1-0.6,0.1s-0.4,0-0.6,0.1c0,0.2,0,0.3,0,0.5s0,0.3,0,0.5c0.4,0,0.8-0.1,1.1-0.2
		c0.3-0.1,0.6-0.1,0.7-0.1c0.8-0.2,1.4-0.2,1.9,0.1c0.4,0.3,0.6,0.5,0.5,0.7s-0.5,0.2-1.3,0.1c-0.3,0-0.7,0-1.2,0s-1.1,0-1.8,0.1
		c0,1,0,1.7-0.1,2.4c-0.1,0.6-0.1,1.1-0.2,1.4c-0.2,0.7-0.4,0.7-0.6-0.1c0-0.2-0.1-0.6-0.1-1.2s0-1.3,0-2.4c-0.5,0-0.9,0.1-1.2,0.1
		s-0.5,0.1-0.6,0.1c-0.2,0-0.4,0.1-0.5,0.1s-0.3,0-0.4,0s-0.2,0-0.3-0.1c-0.1,0-0.1-0.1-0.2-0.1c-0.3-0.2-0.4-0.3-0.4-0.4
		s0.2-0.1,0.5-0.1c0.1,0,0.2,0,0.5,0c0.2,0,0.4,0,0.7-0.1c0.3,0,0.5,0,0.9-0.1c0.3,0,0.6-0.1,1-0.1c0-0.2,0-0.3,0-0.5s0-0.3,0-0.5
		c-0.2,0-0.4,0.1-0.6,0.1s-0.3,0-0.5,0c-0.1,0-0.3,0-0.4,0s-0.3-0.1-0.4-0.1c-0.2-0.1-0.3-0.2-0.3-0.2c0-0.1,0.2-0.1,0.6-0.2
		c0.2,0,0.5-0.1,0.8-0.1s0.5-0.1,0.8-0.1c0-0.2,0-0.3,0-0.5s0-0.4,0-0.6c-0.2,0-0.3,0-0.5,0.1c-0.2,0-0.3,0-0.4,0.1
		c-0.3,0.1-0.5,0.1-0.6,0.1c-0.2,0-0.3,0-0.4-0.1c-0.2-0.1-0.4-0.2-0.4-0.3c0-0.1,0.2-0.1,0.6-0.2c0.2,0,0.5,0,0.8-0.1
		c0.3,0,0.6-0.1,0.9-0.1c0-0.2,0-0.3,0-0.5s0-0.3,0-0.5c-0.2,0-0.4,0.1-0.5,0.1s-0.3,0-0.3,0.1c-0.2,0.1-0.4,0.1-0.5,0.1
		s-0.3,0-0.4,0s-0.2,0-0.3,0c-0.1,0-0.2,0-0.2-0.1c-0.3-0.1-0.4-0.2-0.4-0.3c0-0.1,0.2-0.1,0.5-0.2c0.3,0,0.6,0,1-0.1
		s0.8-0.1,1.2-0.1c0-0.2,0-0.3,0-0.5S266.7,70.8,266.7,70.6z M267.7,72.9c0.4-0.1,0.7-0.1,0.9-0.2c0.2,0,0.3-0.1,0.3-0.1
		c0-0.2,0.1-0.3,0.1-0.4s0-0.3,0.1-0.4c-0.2,0-0.4,0-0.6,0.1c-0.2,0-0.4,0.1-0.6,0.1v0.9H267.7z M269.1,71.2c0-0.1,0-0.3,0-0.4
		s0-0.3,0-0.4c0-0.2-0.1-0.2-0.4-0.2c-0.2,0-0.3,0-0.5,0.1c-0.2,0-0.3,0.1-0.6,0.1c0,0.2,0,0.3,0,0.5s0,0.4,0,0.6
		c0.2,0,0.5-0.1,0.7-0.1C268.7,71.3,268.9,71.3,269.1,71.2z"/>
</g>
<g id="XMLID_13_" class="st1">
	<path id="XMLID_104_" class="st0" d="M285.2,69.2c0,0.1-0.1,0.3-0.1,0.5s-0.1,0.5-0.1,0.8c0,1.1-0.1,2-0.1,2.7
		c-0.1,0.6-0.1,1.1-0.2,1.3c-0.1,0.6-0.3,1.1-0.5,1.6s-0.4,0.9-0.7,1.3c-0.3,0.4-0.6,0.8-1,1.1c-0.4,0.3-0.8,0.6-1.3,0.9
		c-0.3,0.2-0.5,0.2-0.5,0.1s0.1-0.2,0.3-0.5c0.8-0.7,1.4-1.4,1.8-2.2c0.4-0.8,0.7-1.6,0.9-2.5c0.1-0.6,0.2-1.2,0.2-1.8s0-1.2,0-1.7
		s-0.1-1-0.1-1.3c-0.1-0.4-0.1-0.6-0.2-0.7c-0.3-0.4-0.4-0.6-0.3-0.7s0.5,0,1.1,0.2c0.2,0.1,0.4,0.2,0.6,0.3
		c0.1,0.1,0.2,0.1,0.3,0.2c0.1,0.1,0.1,0.2,0.1,0.2C285.3,69,285.3,69.1,285.2,69.2z M283,71.2c-0.1,0.1-0.1,0.4-0.2,0.8
		c0,0.4-0.1,0.9-0.1,1.4c0,0.4,0,0.7,0,1s-0.1,0.6-0.1,0.8c-0.1,0.4-0.2,0.5-0.4,0.5c-0.2,0-0.4-0.2-0.6-0.7c-0.2-0.3-0.1-0.7,0-1.1
		c0-0.1,0.1-0.3,0.1-0.5s0.1-0.5,0.1-0.9c0-0.5,0-0.9-0.1-1.2c0-0.3-0.1-0.5-0.2-0.7c-0.2-0.4-0.3-0.6-0.2-0.7
		c0.1-0.1,0.4,0,0.9,0.2c0.2,0.1,0.4,0.2,0.5,0.2c0.1,0.1,0.2,0.1,0.2,0.2s0.1,0.1,0,0.2C283,71,283,71.1,283,71.2z M288,69.9
		c-0.2,0-0.4,0.1-0.6,0.1s-0.3,0-0.4,0s-0.2,0-0.4,0s-0.2,0-0.3,0c-0.2,0-0.4-0.1-0.5-0.1c-0.1-0.1-0.1-0.1-0.1-0.2s0.1-0.1,0.2-0.2
		s0.3-0.1,0.5-0.1c0.3,0,0.6,0,1-0.1c0.4,0,0.7-0.1,1.1-0.2s0.7-0.1,1-0.2s0.6-0.2,0.8-0.2c0.4-0.2,0.8-0.3,1.1-0.3s0.6,0.1,0.8,0.2
		c0.1,0,0.2,0.1,0.3,0.2c0.1,0.1,0.1,0.2,0.1,0.2c0,0.1-0.1,0.1-0.1,0.2c-0.1,0.1-0.2,0.1-0.3,0.1c-0.2,0-0.6,0.1-1.1,0.2
		s-1.3,0.2-2.2,0.3c0.2,0.1,0.4,0.2,0.6,0.2c0.1,0.1,0.2,0.1,0.3,0.2c0.1,0.1,0.1,0.1,0.1,0.2s0,0.1-0.1,0.2c0,0.1-0.1,0.2-0.1,0.3
		c0,0.1-0.1,0.3-0.1,0.5c0.5-0.1,0.8-0.1,1-0.2s0.4-0.1,0.5-0.2s0.2-0.1,0.3-0.1c0.1,0,0.2,0,0.2,0c0.1,0,0.2,0,0.3,0.1
		c0.1,0,0.2,0.1,0.4,0.2c0.2,0.1,0.4,0.3,0.5,0.3s0.2,0.2,0.2,0.2c0,0.1,0,0.1,0,0.2s-0.1,0.2-0.2,0.2c-0.1,0.1-0.1,0.1-0.1,0.2
		s-0.1,0.2-0.1,0.3c0,0.1,0,0.3-0.1,0.5c0,0.2,0,0.5,0,0.8c0,0.5-0.1,0.9-0.2,1.3c-0.1,0.3-0.2,0.6-0.5,0.9
		c-0.2,0.2-0.3,0.3-0.5,0.3s-0.3-0.1-0.4-0.3c-0.1-0.2-0.2-0.4-0.4-0.6s-0.4-0.4-0.6-0.6s-0.3-0.3-0.2-0.4c0.1-0.1,0.2-0.1,0.5,0
		s0.5,0.1,0.7,0.1s0.2-0.1,0.2-0.2c0-0.2,0.1-0.4,0.1-0.7c0-0.3,0-0.5,0.1-0.7s0-0.5,0-0.7s0-0.3,0-0.5c0-0.1-0.1-0.2-0.1-0.3
		c0,0-0.2,0-0.3,0c-0.3,0-0.6,0.1-0.8,0.1c-0.2,0-0.4,0-0.6,0.1l0,0c0,0.4,0,0.9,0,1.4s0,1,0,1.4c0,0.5,0,0.9,0,1.3s0,0.7,0,0.9
		c0,0.3,0,0.5,0,0.8s0,0.6-0.1,0.8c0,0.3-0.1,0.5-0.1,0.8S289,80,289,80.2c-0.1,0.5-0.3,0.8-0.4,0.7c-0.1,0-0.2-0.3-0.3-0.9
		c0-0.2,0-0.4-0.1-0.6c0-0.2,0-0.4,0-0.7s0-0.4,0-0.6s0-0.3,0-0.4c0-0.2,0-0.5,0-0.8s0-0.6,0-1s0-0.9,0-1.5s0-1.3,0-2.2
		c-0.2,0-0.4,0-0.6,0.1c-0.2,0-0.4,0-0.6,0c0,0.7,0,1.3-0.1,1.8c0,0.6-0.1,1-0.1,1.4c-0.1,0.5-0.2,0.7-0.4,0.8
		c-0.2,0.1-0.4-0.1-0.5-0.5c-0.1-0.2-0.2-0.5-0.2-0.6c0-0.2,0-0.4,0.2-0.6c0.1-0.1,0.1-0.4,0.2-0.7c0-0.3,0.1-0.7,0.1-1
		c0-0.4-0.1-0.7-0.2-0.9c-0.1-0.2-0.1-0.4,0-0.5c0.2-0.1,0.4,0,0.9,0.2c0.3,0,0.5,0,0.7,0s0.4,0,0.7-0.1c0-0.4,0-0.8-0.1-1
		C288.1,70.4,288.1,70.2,288,69.9z"/>
</g>
<g id="XMLID_14_" class="st1">
	<path id="XMLID_98_" class="st0" d="M304.9,70c-0.7,0-1.4,0.1-2,0.2s-1.1,0.1-1.6,0.2c-0.2,0-0.3,0.1-0.5,0.1c-0.1,0-0.2,0-0.3,0
		s-0.2,0-0.3-0.1s-0.2-0.1-0.3-0.2c-0.3-0.2-0.4-0.3-0.4-0.4s0.2-0.1,0.6-0.1c0.3,0,0.8,0,1.6-0.1c0.8,0,1.8-0.1,3.1-0.2
		c0-0.2-0.1-0.4-0.1-0.6s-0.1-0.3-0.1-0.4s-0.1-0.2-0.1-0.3c0-0.1-0.1-0.2-0.2-0.2c-0.2-0.3-0.3-0.5-0.1-0.6c0.1-0.1,0.5-0.1,1,0.1
		c0.2,0.1,0.4,0.2,0.6,0.3c0.1,0.1,0.2,0.1,0.3,0.2c0,0.1,0.1,0.2,0,0.2c0,0.1-0.1,0.2-0.1,0.3c0,0.1,0,0.2-0.1,0.2
		c0,0.1,0,0.3,0,0.6c0.3,0,0.6-0.1,1-0.1c0.3,0,0.7-0.1,1-0.1s0.6-0.1,0.9-0.1s0.5-0.1,0.7-0.1s0.4-0.1,0.5-0.1s0.3,0,0.4,0
		s0.2,0,0.4,0.1s0.2,0.1,0.4,0.2c0.4,0.3,0.6,0.4,0.5,0.6c-0.1,0.1-0.5,0.2-1.3,0.2c-0.2,0-0.5,0-0.8,0s-0.6,0-1,0s-0.8,0-1.2,0
		c-0.4,0-0.9,0-1.3,0.1v0.7c0.4,0,0.7-0.1,1-0.2s0.5-0.1,0.6-0.1c0.2,0,0.3-0.1,0.4-0.1s0.2,0,0.2,0c0.1,0,0.2,0,0.2,0.1
		s0.2,0.1,0.3,0.2c0.4,0.2,0.6,0.4,0.6,0.5s-0.1,0.2-0.4,0.3c-0.2,0.1-0.3,0.1-0.4,0.2s-0.1,0.2-0.2,0.2c0.2,0.2,0.2,0.3,0.2,0.4
		s-0.3,0.2-0.7,0.2c-0.1,0-0.2,0-0.3,0c-0.1,0-0.2,0-0.4,0c-0.2,0-0.3,0-0.5,0.1c-0.2,0-0.5,0-0.8,0.1v0.7c0.4-0.1,0.8-0.1,1.2-0.2
		c0.4-0.1,0.6-0.1,0.8-0.2c0.1-0.1,0.2-0.1,0.3-0.1c0.1,0,0.2,0,0.3,0s0.2,0,0.3,0.1s0.2,0.1,0.3,0.2c0.3,0.2,0.5,0.4,0.6,0.5
		c0,0.1,0,0.3-0.2,0.4c-0.1,0.1-0.1,0.1-0.2,0.2c-0.1,0-0.1,0.1-0.2,0.2c0.3,0,0.5-0.1,0.7-0.1s0.3,0,0.5,0c0.1,0,0.2,0,0.3,0.1
		s0.2,0.1,0.3,0.1c0.1,0.1,0.3,0.2,0.3,0.3c0.1,0.1,0.1,0.2,0,0.3c-0.1,0.1-0.2,0.1-0.3,0.2c-0.2,0-0.4,0-0.7,0c-0.2,0-0.4,0-0.6,0
		s-0.5,0-0.8,0c0,0.1-0.1,0.2-0.1,0.3c0,0.1-0.1,0.2-0.1,0.4c0.3,0.3,0.4,0.5,0.3,0.6c0,0.2-0.2,0.2-0.6,0.2c-0.1,0-0.2,0-0.3,0
		c-0.1,0-0.3,0-0.4,0s-0.4,0-0.6,0s-0.5,0-0.9,0.1c0,0.4,0,0.7,0,1s0,0.5,0,0.6c0,0.2,0,0.5,0,0.6c0,0.2,0,0.4-0.1,0.5
		s-0.1,0.3-0.2,0.5s-0.2,0.3-0.3,0.5c-0.3,0.5-0.7,0.5-1-0.1c-0.1-0.2-0.2-0.3-0.4-0.5c-0.2-0.2-0.5-0.4-0.8-0.7
		c-0.3-0.2-0.4-0.3-0.3-0.4s0.3-0.1,0.7,0c0.2,0.1,0.5,0.1,0.6,0.1s0.3,0,0.4-0.1c0.1,0,0.2-0.1,0.2-0.2s0.1-0.2,0.1-0.3
		c0-0.3,0-0.5,0-0.7s0-0.5,0-0.9c-0.3,0-0.6,0.1-0.9,0.1s-0.5,0.1-0.7,0.1c-0.3,0.1-0.6,0.1-0.8,0.1c-0.2,0-0.4-0.1-0.5-0.2
		c-0.3-0.2-0.4-0.3-0.4-0.4s0.2-0.1,0.6-0.1c0.3,0,0.6,0,1.1-0.1c0.5,0,1-0.1,1.6-0.2c0-0.1,0-0.3,0-0.4s0-0.3,0-0.5
		c-0.5,0-1,0.1-1.5,0.2s-0.9,0.1-1.3,0.2c-0.2,0-0.4,0.1-0.5,0.1s-0.3,0-0.4,0s-0.2,0-0.3,0c-0.1,0-0.2-0.1-0.3-0.1
		c-0.3-0.2-0.5-0.3-0.4-0.4c0-0.1,0.3-0.1,0.8-0.2c0.4,0,0.9,0,1.6-0.1s1.5-0.1,2.3-0.2V74c-0.2,0-0.3,0-0.5,0.1
		c-0.1,0-0.2,0-0.3,0.1c-0.3,0-0.5,0.1-0.6,0.1c-0.2,0-0.3,0-0.4,0s-0.2,0-0.3,0c-0.1,0-0.2-0.1-0.3-0.1c-0.2-0.1-0.3-0.2-0.2-0.3
		s0.3-0.2,0.8-0.2c0.2,0,0.5,0,0.8-0.1c0.3,0,0.7-0.1,1.1-0.1v-0.8c-0.3,0-0.6,0.1-0.8,0.1c-0.3,0-0.5,0.1-0.8,0.1
		c-0.1,0.2-0.2,0.3-0.3,0.3c-0.1,0-0.3-0.2-0.4-0.5s-0.2-0.5-0.2-0.6s-0.2-0.4-0.4-0.5c-0.1-0.1-0.2-0.2-0.2-0.3c0-0.1,0-0.1,0-0.2
		c0.1,0,0.2-0.1,0.3-0.1s0.4,0,0.7,0.1c0.3,0,0.7-0.1,1-0.1c0.4,0,0.7-0.1,1.1-0.1c0-0.2,0-0.3,0-0.4S305,70.1,304.9,70z
		 M303.4,72.3c0.3,0,0.5-0.1,0.8-0.1s0.5-0.1,0.8-0.1v-0.8c-0.3,0-0.6,0.1-0.9,0.1s-0.6,0.1-0.9,0.1c0,0.1,0.1,0.2,0.1,0.4
		C303.3,72,303.4,72.1,303.4,72.3z M306,72c0.3,0,0.6-0.1,0.8-0.1c0.2,0,0.4,0,0.6-0.1c0.1-0.1,0.2-0.2,0.2-0.2s0.1-0.2,0.1-0.3
		c0.1-0.2,0-0.3-0.3-0.3c-0.1,0-0.3,0-0.6,0.1c-0.2,0-0.5,0.1-0.8,0.1L306,72L306,72z M306,74.6c0.4,0,0.7-0.1,1-0.1s0.7-0.1,1-0.1
		c0.1-0.4,0.1-0.6,0.1-0.7s-0.1-0.1-0.2-0.1s-0.3,0-0.4,0s-0.2,0-0.4,0c-0.1,0-0.3,0-0.5,0.1c-0.2,0-0.4,0-0.7,0.1v0.8
		C305.9,74.6,306,74.6,306,74.6z M306,76.1c0.4-0.1,0.7-0.1,0.9-0.1c0.2,0,0.4-0.1,0.5-0.1s0.1-0.1,0.1-0.1l0.1-0.1
		c0,0,0.1-0.1,0.1-0.2s0-0.2,0.1-0.3c-0.3,0-0.6,0-0.9,0s-0.6,0-1,0.1L306,76.1L306,76.1z"/>
</g>
<g id="XMLID_15_" class="st1">
	<path id="XMLID_94_" class="st0" d="M321.1,71.1c-0.2,0.2-0.4,0.4-0.7,0.5c-0.2,0.2-0.5,0.3-0.8,0.5c-0.4,0.2-0.6,0.3-0.7,0.2
		c-0.1-0.1,0.1-0.3,0.4-0.5c0.2-0.2,0.4-0.4,0.6-0.6s0.3-0.4,0.5-0.6s0.3-0.5,0.5-0.7c0.2-0.3,0.4-0.6,0.6-0.9s0.3-0.5,0.3-0.8
		c0.1-0.2,0.1-0.4,0-0.5c-0.1-0.3-0.1-0.5,0.1-0.5c0.2-0.1,0.5,0.1,1,0.3c0.2,0.1,0.4,0.2,0.5,0.3c0.1,0.1,0.2,0.2,0.2,0.2
		c0,0.1,0,0.1,0,0.2s-0.1,0.1-0.2,0.2c-0.1,0-0.1,0.1-0.2,0.1c-0.1,0.1-0.1,0.1-0.2,0.2s-0.1,0.2-0.2,0.3c-0.1,0.1-0.2,0.2-0.3,0.4
		c0.4,0,0.8-0.1,1.1-0.2c0.3-0.1,0.7-0.2,1-0.4c0.1-0.1,0.2-0.1,0.3-0.1c0.1,0,0.2,0,0.3,0s0.2,0,0.3,0.1s0.2,0.1,0.3,0.2
		c0.2,0.2,0.4,0.3,0.6,0.4s0.2,0.2,0.2,0.3c0,0.1,0,0.2-0.1,0.2c-0.1,0.1-0.2,0.1-0.3,0.2c-0.2,0.1-0.3,0.2-0.5,0.3
		c-0.2,0.2-0.3,0.3-0.5,0.5s-0.4,0.4-0.5,0.6c-0.2,0.2-0.4,0.3-0.6,0.5c0.6,0.4,1.1,0.7,1.6,0.9s0.9,0.4,1.3,0.6s0.9,0.3,1.3,0.4
		c0.5,0.1,1,0.2,1.6,0.3c0.4,0.1,0.6,0.1,0.6,0.3s-0.2,0.2-0.6,0.3c-0.6,0.1-1.1,0.2-1.4,0.3c-0.3,0.1-0.6,0.1-0.9,0.1
		c-0.2,0-0.4,0-0.6-0.1c-0.1-0.1-0.3-0.2-0.5-0.3c-0.2-0.2-0.5-0.3-0.7-0.5s-0.5-0.3-0.7-0.5s-0.5-0.4-0.8-0.6s-0.6-0.4-0.9-0.7
		c-1,0.8-2.1,1.4-3.1,1.9s-2.1,0.9-3.2,1c-0.4,0.1-0.6,0.1-0.6-0.1c0-0.1,0.1-0.2,0.5-0.3c0.5-0.2,0.9-0.3,1.4-0.6
		c0.5-0.2,1-0.5,1.5-0.8s1-0.6,1.4-0.9c0.5-0.3,0.9-0.6,1.2-0.9c-0.4-0.3-0.7-0.5-0.9-0.6S321.3,71.2,321.1,71.1z M323.1,75.8
		c-0.5,1-1.1,2-1.9,2.8s-1.7,1.4-2.8,1.8c-0.3,0.1-0.5,0.1-0.5,0s0.1-0.2,0.4-0.4c0.9-0.6,1.6-1.2,2.2-1.9s1-1.4,1.3-2
		c-0.1,0-0.2,0.1-0.3,0.1c-0.1,0-0.2,0.1-0.3,0.1c-0.2,0-0.4,0.1-0.5,0.1s-0.3,0-0.4,0s-0.2,0-0.4-0.1c-0.1-0.1-0.3-0.1-0.4-0.2
		c-0.2-0.1-0.3-0.2-0.3-0.3c0-0.1,0.1-0.1,0.4-0.1s0.6,0,1,0s0.9-0.1,1.5-0.2c0.1-0.4,0.2-0.6,0.3-0.8c0-0.2,0-0.3,0-0.4
		c-0.1-0.4-0.2-0.6,0-0.7s0.4,0,0.9,0.2c0.2,0.1,0.4,0.2,0.5,0.2c0.1,0.1,0.2,0.1,0.2,0.2s0,0.1,0,0.2s-0.1,0.2-0.2,0.3
		c-0.1,0.1-0.1,0.2-0.2,0.3s-0.1,0.2-0.2,0.4c0.4-0.1,0.7-0.1,0.9-0.2c0.2,0,0.3-0.1,0.4-0.1c0.2-0.1,0.3-0.1,0.5-0.1
		s0.4,0.1,0.6,0.2c0.3,0.2,0.5,0.3,0.6,0.4s0.2,0.2,0.3,0.3s0,0.2,0,0.2c0,0.1-0.1,0.2-0.2,0.3c-0.1,0.1-0.2,0.3-0.3,0.5
		c-0.1,0.2-0.2,0.5-0.2,0.8c-0.1,0.5-0.2,0.9-0.3,1.2c-0.1,0.3-0.2,0.6-0.3,0.8c-0.1,0.2-0.3,0.4-0.4,0.6s-0.4,0.4-0.6,0.6
		s-0.4,0.2-0.6,0.2s-0.3-0.2-0.3-0.4c-0.1-0.2-0.1-0.4-0.3-0.6c-0.1-0.2-0.3-0.5-0.5-0.7s-0.3-0.4-0.2-0.5c0.1-0.1,0.2-0.1,0.5,0
		c0.2,0.1,0.4,0.2,0.6,0.2c0.1,0,0.3,0.1,0.4,0.1s0.2,0,0.2-0.1c0.1-0.1,0.1-0.2,0.2-0.3c0.1-0.3,0.3-0.6,0.3-0.9
		c0.1-0.3,0.2-0.7,0.2-1.1c0-0.2,0-0.3,0-0.4s0-0.2,0-0.2s0-0.1-0.1-0.1h-0.1c-0.2,0-0.4,0-0.6,0C323.7,75.7,323.4,75.8,323.1,75.8z
		 M322.1,69.9c-0.1,0.1-0.2,0.2-0.3,0.3c-0.1,0.1-0.2,0.2-0.3,0.4c0.2,0.1,0.4,0.2,0.6,0.3c0.2,0.1,0.6,0.3,1,0.6
		c0.2-0.1,0.3-0.3,0.4-0.4s0.2-0.2,0.3-0.3c0.1-0.1,0.2-0.2,0.3-0.3c0.1-0.1,0.2-0.2,0.3-0.4c0.2-0.2,0.1-0.3-0.2-0.2
		c-0.3,0.1-0.5,0.1-0.7,0.2c-0.2,0-0.4,0.1-0.5,0.1s-0.3,0-0.4,0C322.4,70,322.3,70,322.1,69.9z"/>
</g>
<g id="XMLID_11_" class="st1">
	<path id="XMLID_90_" class="st0" d="M338.9,70.2c0.3-0.2,0.6-0.4,0.8-0.6s0.4-0.3,0.5-0.4s0.2-0.2,0.3-0.3s0.1-0.2,0.1-0.3
		c0.1-0.3,0.1-0.5,0.3-0.5s0.4,0.1,0.8,0.3c0.5,0.3,0.8,0.6,0.8,0.8c0,0.2-0.1,0.3-0.5,0.4c-0.1,0-0.2,0-0.3,0.1s-0.3,0.1-0.5,0.2
		s-0.5,0.2-0.8,0.3s-0.7,0.3-1.2,0.5c0,0.4,0,0.7,0,1s0,0.6,0,0.9c0.7-0.1,1.2-0.3,1.5-0.6c0.1-0.1,0.2-0.1,0.2-0.2
		c0.1,0,0.1-0.1,0.2-0.1s0.2,0,0.3,0.1c0.1,0,0.3,0.1,0.5,0.2c0.4,0.2,0.6,0.3,0.6,0.4s0,0.3-0.3,0.5c-0.1,0.1-0.3,0.3-0.4,0.6
		c-0.1,0.2-0.3,0.5-0.3,0.7c0.3,0.2,0.4,0.4,0.4,0.6s-0.2,0.3-0.5,0.3c-0.1,0-0.2,0-0.3,0.1c-0.1,0-0.2,0-0.3,0.1
		c-0.1,0-0.2,0.1-0.4,0.1c-0.1,0-0.3,0.1-0.5,0.1s-0.4,0.1-0.6,0.1s-0.4,0-0.7,0.1c-0.2,0.9-0.5,1.6-0.8,2.2s-0.7,1-1.1,1.3
		s-0.6,0.4-0.6,0.3c-0.1-0.1,0-0.3,0.3-0.7c0.3-0.5,0.6-1.1,0.9-1.8s0.4-1.5,0.5-2.4c0.1-1,0.1-1.8,0.1-2.5
		c-0.1-0.7-0.2-1.1-0.3-1.3c-0.1-0.1-0.2-0.3-0.2-0.4s0-0.2,0.1-0.2s0.2,0,0.4,0C338.3,70,338.6,70.1,338.9,70.2z M338.9,74.9
		c0.2,0,0.4-0.1,0.6-0.1c0.2-0.1,0.4-0.2,0.7-0.3c0.1-0.1,0.2-0.1,0.3-0.2s0.1-0.2,0.2-0.5c0-0.3,0.1-0.5,0.1-0.6c0-0.2,0-0.3,0-0.3
		c0-0.1-0.1-0.1-0.2-0.1s-0.2,0-0.4,0.1c-0.2,0-0.3,0.1-0.5,0.1s-0.3,0.1-0.5,0.1c0,0.3,0,0.6-0.1,0.9S339,74.6,338.9,74.9z
		 M344.1,70.1c0.2-0.2,0.5-0.4,0.6-0.5c0.2-0.2,0.3-0.3,0.4-0.4s0.2-0.2,0.2-0.3c0-0.1,0.1-0.2,0.1-0.3c0-0.2,0.1-0.4,0.3-0.4
		c0.2,0,0.5,0.1,0.9,0.2c0.3,0.1,0.5,0.2,0.6,0.3c0.1,0.1,0.2,0.2,0.2,0.3c0,0.1,0,0.1-0.1,0.2s-0.2,0.1-0.4,0.1
		c-0.1,0-0.2,0.1-0.4,0.1c-0.1,0-0.3,0.1-0.5,0.2s-0.5,0.2-0.8,0.3c-0.3,0.1-0.7,0.3-1.3,0.6c0,0.3,0,0.6,0,0.9s0,0.6,0,1
		c0.2,0,0.5-0.1,0.8-0.1s0.6-0.1,0.9-0.2s0.6-0.1,0.9-0.2s0.5-0.2,0.8-0.2c0.2-0.1,0.4-0.1,0.6-0.1s0.3,0,0.5,0
		c0.5,0.2,0.8,0.3,0.8,0.5s-0.2,0.3-0.7,0.4c-0.3,0-0.6,0.1-0.9,0.1s-0.6,0.1-1,0.1c0,0.1,0,0.3,0,0.5s0,0.4,0,0.6s0,0.4,0,0.5
		s0,0.3,0,0.4c0,0.9,0,1.7,0,2.4c0,0.6,0,1.2-0.1,1.6c0,0.4-0.1,0.8-0.1,1.1c-0.1,0.3-0.1,0.5-0.2,0.7c-0.1,0.3-0.2,0.5-0.4,0.5
		s-0.2-0.2-0.3-0.6c0-0.1,0-0.4-0.1-0.8c0-0.4,0-0.9,0-1.4s0-1.1,0-1.7s0-1.2,0-1.7c0-0.1,0-0.2,0-0.3c0-0.2,0-0.3,0-0.5
		s0-0.4,0-0.6s0-0.4-0.1-0.5c-0.3,0-0.5,0.1-0.8,0.1s-0.4,0-0.6-0.1c0,0.8-0.1,1.4-0.2,2s-0.3,1.1-0.6,1.6c-0.2,0.5-0.5,0.9-0.9,1.2
		c-0.3,0.3-0.7,0.7-1.2,0.9c-0.4,0.2-0.6,0.3-0.7,0.2c-0.1-0.1,0.1-0.3,0.4-0.6c0.5-0.5,0.9-1,1.2-1.5s0.5-1.1,0.7-1.7
		c0.1-0.4,0.2-0.8,0.2-1.3s0.1-0.9,0.1-1.4c0-0.4,0-0.8,0-1.2s-0.1-0.6-0.2-0.7c-0.2-0.4-0.3-0.6-0.1-0.7
		C343.2,69.8,343.5,69.9,344.1,70.1z"/>
</g>
<g id="XMLID_6_">
	<path id="XMLID_87_" class="st0" d="M42.5,77.7h4.8c1,0,1.8,0.2,2.3,0.7s0.8,1.2,0.8,2.1s-0.3,1.7-0.8,2.2
		c-0.6,0.5-1.4,0.8-2.6,0.8h-1.6V87h-2.9V77.7z M45.4,81.7h0.7c0.6,0,0.9-0.1,1.2-0.3s0.3-0.4,0.3-0.7c0-0.3-0.1-0.5-0.3-0.7
		s-0.6-0.3-1.1-0.3h-0.8C45.4,79.7,45.4,81.7,45.4,81.7z"/>
</g>
<g id="XMLID_8_">
	<path id="XMLID_83_" class="st0" d="M35,83.5l1.6,0.3c-0.1,0.3-0.2,0.5-0.2,0.7s-0.2,0.4-0.3,0.6l0.7,0.5c0.1,0.1,0.2,0.1,0.4,0.2
		L36.1,87c-0.2-0.1-0.4-0.2-0.6-0.4s-0.4-0.3-0.6-0.4c-0.3,0.2-0.7,0.4-1,0.5c-0.5,0.1-1,0.2-1.6,0.2c-1,0-1.7-0.2-2.1-0.6
		s-0.7-0.9-0.7-1.4c0-0.4,0.1-0.8,0.4-1.2c0.3-0.4,0.7-0.7,1.3-0.9c-0.3-0.3-0.4-0.6-0.5-0.8c-0.1-0.2-0.1-0.5-0.1-0.7
		c0-0.5,0.2-0.9,0.6-1.3s1-0.5,1.8-0.5s1.4,0.2,1.8,0.5s0.6,0.7,0.6,1.1c0,0.2-0.1,0.5-0.2,0.7s-0.3,0.4-0.4,0.5s-0.5,0.3-0.9,0.6
		c0.3,0.3,0.7,0.7,1.1,1C34.9,84,35,83.7,35,83.5z M32,84c-0.3,0.2-0.5,0.4-0.5,0.5s-0.1,0.3-0.1,0.4c0,0.2,0.1,0.4,0.3,0.6
		s0.5,0.3,0.8,0.3c0.4,0,0.8-0.1,1.2-0.4C33.2,85.1,32.7,84.6,32,84z M32.8,82.3c0.3-0.1,0.5-0.3,0.6-0.5s0.2-0.3,0.2-0.5
		s-0.1-0.3-0.2-0.4c-0.1-0.1-0.3-0.2-0.5-0.2s-0.4,0.1-0.5,0.2s-0.2,0.3-0.2,0.4C32.2,81.6,32.4,81.9,32.8,82.3z"/>
</g>
<g id="XMLID_16_">
	<path id="XMLID_65_" class="st0" d="M287.6,31.7h-4.8V29h1.1v-6.4c0-1.8,0.9-2.7,2.7-2.7h5.4c1.8,0,2.7,0.9,2.7,2.7v9.1h-3.8v-9.1
		h-3.2v9.1H287.6z M283.8,18.3v-2.7h10.7v2.7H283.8z"/>
	<path id="XMLID_68_" class="st0" d="M284.9,12.9c0-1.1,0.3-1.9,1-2.4s1.6-0.8,2.9-0.8c0.7,0,1.4,0.1,2,0.3s1.3,0.6,1.9,1V9.2h1.9
		V14h-9.7L284.9,12.9L284.9,12.9z M288.8,11.9c-0.4,0-0.8,0.1-1,0.3s-0.3,0.4-0.3,0.8h5c-0.4-0.4-0.9-0.6-1.5-0.8
		S289.6,11.9,288.8,11.9z"/>
	<path id="XMLID_71_" class="st0" d="M303.9,18.3v-2.7h10.7v2.7H303.9z M310.9,31.7v-9.1h-3.2v9.1h-3.8v-9.1c0-1.8,0.9-2.7,2.7-2.7
		h5.4c1.8,0,2.7,0.9,2.7,2.7v9.1H310.9z"/>
	<path id="XMLID_74_" class="st0" d="M324.8,22.6V21l-1.6-1.7l2.1-3.7h3.2v2.7h-3.1l3.1,2.7v8c0,1.8-0.9,2.7-2.7,2.7h-5.4
		c-1.8,0-2.7-0.9-2.7-2.7v-8l-1.6-1.7l2.1-3.7h3.2v2.7h-3.1l3.1,2.7v8h3.2v-3.8h-2.7v-2.7h2.9V22.6z"/>
	<path id="XMLID_76_" class="st0" d="M328.1,39.2h-3.2v-4.4l-1.6,1l-1.6-1V37h1.1v2.1h-4.3v-6.4h3.2l1.6,1l1.6-1h3.2L328.1,39.2
		L328.1,39.2z"/>
	<path id="XMLID_78_" class="st0" d="M328.1,39.8v4.8h-3.2v-4.8H328.1z"/>
	<path id="XMLID_80_" class="st0" d="M338.8,19.9h3.8v11.8h-3.8l-1.6-1.6l-1.6,1.6h-3.8V21l-1.6-1.7l2.1-3.7h6.4v-1.1h3.8v3.8h-10.1
		l3.1,2.7v7.6l1.6-1.6l1.6,1.6v-8.7C338.7,19.9,338.8,19.9,338.8,19.9z M345.8,31.7V18.3h-2.7v-2.7h3.8c1.8,0,2.7,0.9,2.7,2.7v13.4
		C349.6,31.7,345.8,31.7,345.8,31.7z"/>
</g>
<g id="XMLID_17_">
	<path id="XMLID_37_" class="st0" d="M103.7,21l-1.6-1.7l2.1-3.7h3.2v2.7h-3.1l3.1,2.7v16.1h3.2v-4.3h3.8v4.3c0,1.4-0.9,2.1-2.7,2.1
		h-5.4c-1.8,0-2.7-0.7-2.7-2.1L103.7,21L103.7,21z M110.7,18.3v-2.7h10.7v2.7H110.7z M117.6,31.7v-9.1h-3.2v9.1h-3.8v-9.1
		c0-1.8,0.9-2.7,2.7-2.7h5.4c1.8,0,2.7,0.9,2.7,2.7v9.1H117.6z"/>
	<path id="XMLID_41_" class="st0" d="M121.4,32.8v6.4h-3.2v-6.4H121.4z"/>
	<path id="XMLID_43_" class="st0" d="M131.6,22.6V21l-1.6-1.7l2.1-3.7h3.2v2.7h-3.1l3.1,2.7v8c0,1.8-0.9,2.7-2.7,2.7h-5.4
		c-1.8,0-2.7-0.9-2.7-2.7v-8l-1.6-1.7l2.1-3.7h3.2v2.7h-3.1l3.1,2.7v8h3.2v-3.8h-2.7v-2.7h2.9V22.6z"/>
	<path id="XMLID_45_" class="st0" d="M138.6,21l-1.6-1.7l2.1-3.7h3.2v2.7h-3.1l3.1,2.7v8h1.1v2.7h-4.8V21z M152.6,22.6V21l-1.6-1.7
		l2.1-3.7h3.2v2.7h-3.1l3.1,2.7v8c0,1.8-0.9,2.7-2.7,2.7h-5.4c-1.8,0-2.7-0.9-2.7-2.7v-8l-1.6-1.7l2.1-3.7h3.2v2.7h-3.1l3.1,2.7v8
		h3.2v-3.8h-2.7v-2.7h2.9V22.6z"/>
	<path id="XMLID_48_" class="st0" d="M166.5,22.1h-1.1V20h4.8v11.8h-3.8l-1.6-1.6l-1.6,1.6h-3.8V21l-1.6-1.7l2.1-3.7h14.5
		c1.8,0,2.7,0.9,2.7,2.7v13.4h-3.8V18.3H160l3.1,2.7v7.6l1.6-1.6l1.6,1.6v-6.5H166.5z"/>
	<path id="XMLID_50_" class="st0" d="M179.4,29h1.1v-8l-1.6-1.7l2.1-3.7h1.6v-1.1h1.6v3.8h-3.1l3.1,2.7v10.7h-4.8L179.4,29L179.4,29
		z"/>
	<path id="XMLID_52_" class="st0" d="M176.2,12.9c0-1.1,0.3-1.9,1-2.4s1.6-0.8,2.9-0.8c0.7,0,1.4,0.1,2,0.3s1.3,0.6,1.9,1V9.2h1.9
		V14h-9.7L176.2,12.9L176.2,12.9z M180.1,11.9c-0.4,0-0.8,0.1-1,0.3s-0.3,0.4-0.3,0.8h5c-0.4-0.4-0.9-0.6-1.5-0.8
		S180.9,11.9,180.1,11.9z"/>
	<path id="XMLID_55_" class="st0" d="M193.6,21l-1.6-1.7l2.1-3.7h3.2v2.7h-3.1l3.1,2.7v8h1.1v2.7h-4.8V21z M200.6,21l-1.6-1.7
		l2.1-3.7h3.2v2.7h-3.1l3.1,2.7v10.7h-4.8V29h1.1V21z M207.5,25.3h-2.7v-2.7h2.7V21l-1.6-1.7l2.1-3.7h3.2v2.7h-3.1l3.1,2.7v10.7
		h-4.8V29h1.1V25.3z"/>
	<path id="XMLID_59_" class="st0" d="M219.2,19.9h3.4c1.8,0,2.7,0.9,2.7,2.7V29h3.2v-8l-1.6-1.7l2.1-3.7h3.2v2.7h-3.1l3.1,2.7v8
		c0,1.8-0.9,2.7-2.7,2.7h-5.4c-1.8,0-2.7-0.9-2.7-2.7v-6.4h-3.2V29h1.1v2.7h-4.8v-9.1c0-1.4,0.6-2.3,1.7-2.6l-1.7-1.6l1.6-2.8h7.5
		v2.7h-6.3L219.2,19.9z"/>
	<path id="XMLID_61_" class="st0" d="M241.6,21l-1.6-1.7l2.1-3.7h3.2v2.7h-3.1l3.1,2.7v8h1.1v2.7h-4.8V21z"/>
	<path id="XMLID_63_" class="st0" d="M255.5,25.3h3.8V29c0,1.8-0.9,2.7-2.7,2.7h-5.4c-1.8,0-2.7-0.9-2.7-2.7v-4.5l3.8-1.1
		c2.1-0.7,3.2-1.7,3.2-3v-2.1h-3.2v1.6h0.5V22h-2.7c-1.1,0-1.6-0.4-1.6-1.1v-2.7c0-1.8,0.9-2.7,2.7-2.7h5.4c1.8,0,2.7,0.9,2.7,2.7
		v2.1c-0.2,2.1-2.2,3.8-6.2,5l-0.8,0.3V29h3.2L255.5,25.3L255.5,25.3z"/>
</g>
<g id="XMLID_1_">
	<path id="XMLID_33_" class="st0" d="M103.1,70.1l6.2-0.5c0.1,1.2,0.4,2.2,0.8,2.8c0.7,1,1.6,1.6,2.9,1.6c0.9,0,1.6-0.3,2.2-0.8
		s0.8-1.2,0.8-1.9c0-0.7-0.2-1.3-0.7-1.8s-1.6-1-3.3-1.5c-2.9-0.8-4.9-1.8-6.1-3.1c-1.2-1.3-1.8-3-1.8-5c0-1.3,0.3-2.6,0.9-3.8
		s1.6-2.1,2.8-2.8c1.3-0.7,3-1,5.2-1c2.7,0,4.8,0.6,6.2,1.8c1.4,1.2,2.3,3.2,2.5,5.8l-6.1,0.4c-0.2-1.2-0.5-2-1-2.5
		s-1.2-0.8-2.2-0.8c-0.8,0-1.3,0.2-1.7,0.6c-0.4,0.4-0.6,0.9-0.6,1.4c0,0.4,0.2,0.8,0.5,1.1s1,0.7,2.2,0.9c2.9,0.8,4.9,1.5,6.1,2.3
		c1.2,0.8,2.1,1.7,2.7,2.9c0.6,1.1,0.8,2.4,0.8,3.8c0,1.7-0.4,3.2-1.1,4.6s-1.8,2.5-3.1,3.2c-1.3,0.7-3,1.1-5.1,1.1
		c-3.6,0-6.1-0.8-7.5-2.5C104.1,74.8,103.3,72.7,103.1,70.1z"/>
	<path id="XMLID_35_" class="st0" d="M125.6,52.8h6.5v9.7l6.8-9.7h8.7l-7.7,9.7l8.1,16h-8L135.4,68l-3.4,4.3v6.3h-6.5L125.6,52.8
		L125.6,52.8z"/>
</g>
<g id="XMLID_2_">
	<path id="XMLID_30_" class="st0" d="M172.3,52.8h11.1c2.4,0,4.2,0.7,5.4,2.1s1.8,3.3,1.8,5.9c0,2.6-0.7,4.6-2,6.1s-3.3,2.2-6,2.2
		H179v9.6h-6.7V52.8z M179,63.8h1.6c1.3,0,2.2-0.3,2.7-0.8s0.8-1.2,0.8-2s-0.2-1.5-0.7-2.1s-1.3-0.8-2.6-0.8H179V63.8z"/>
</g>
<g id="XMLID_18_">
	<path id="XMLID_26_" class="st0" d="M163.6,70.2L167,71c-0.2,0.7-0.3,1.2-0.5,1.7s-0.4,0.9-0.7,1.5l1.6,1.2
		c0.2,0.1,0.5,0.3,0.8,0.5l-2.3,3c-0.4-0.2-0.9-0.5-1.3-0.9c-0.5-0.3-0.9-0.6-1.2-0.8c-0.8,0.5-1.5,0.9-2.3,1.2
		c-1,0.3-2.2,0.5-3.6,0.5c-2.1,0-3.6-0.5-4.7-1.4s-1.5-2.1-1.5-3.5c0-1,0.3-1.9,0.9-2.8c0.6-0.9,1.6-1.6,2.9-2.2
		c-0.6-0.8-1-1.4-1.2-2s-0.3-1.1-0.3-1.7c0-1.2,0.4-2.2,1.3-3c0.8-0.8,2.1-1.2,3.9-1.2c1.8,0,3.1,0.4,3.9,1.1
		c0.8,0.8,1.2,1.6,1.2,2.7c0,0.6-0.1,1.1-0.4,1.7c-0.3,0.5-0.6,1-0.9,1.3s-1,0.8-1.9,1.5c0.8,0.8,1.6,1.6,2.4,2.3
		C163.2,71.3,163.4,70.8,163.6,70.2z M157,71.4c-0.6,0.5-1,0.9-1.2,1.2c-0.2,0.3-0.3,0.7-0.3,1c0,0.6,0.2,1.1,0.7,1.5s1,0.7,1.8,0.7
		s1.7-0.3,2.6-1C159.7,74,158.5,72.9,157,71.4z M158.6,67.2c0.6-0.3,1-0.7,1.3-1.1s0.5-0.8,0.5-1.1c0-0.4-0.1-0.7-0.4-0.9
		c-0.3-0.3-0.6-0.4-1.1-0.4c-0.4,0-0.8,0.1-1.1,0.4s-0.4,0.6-0.4,1C157.4,65.6,157.8,66.3,158.6,67.2z"/>
</g>
<g id="XMLID_19_">
	<path id="XMLID_22_" class="st0" d="M277.7,30.2l-1.5,1.9c-0.7-0.4-1.4-0.8-2.1-1.5c-0.5,0.5-1.1,0.8-1.7,1s-1.3,0.3-2.1,0.3
		c-1.6,0-2.8-0.5-3.6-1.4c-0.6-0.7-0.9-1.5-0.9-2.4c0-0.8,0.2-1.6,0.7-2.2c0.5-0.7,1.2-1.2,2.2-1.7c-0.4-0.5-0.8-1-1-1.5
		s-0.3-0.9-0.3-1.3c0-0.8,0.3-1.4,0.9-2s1.5-0.8,2.7-0.8c1.1,0,2,0.3,2.6,0.9s0.9,1.3,0.9,2.1c0,0.5-0.2,1-0.5,1.5s-0.9,1-1.9,1.6
		L274,27c0.2-0.4,0.4-0.9,0.5-1.5l2.2,0.5c-0.2,0.8-0.4,1.4-0.6,1.7c-0.2,0.4-0.3,0.7-0.5,0.9c0.3,0.3,0.6,0.5,1.1,0.8
		C277.2,29.9,277.5,30.1,277.7,30.2z M270,25.8c-0.6,0.3-1,0.6-1.3,1s-0.4,0.8-0.4,1.2c0,0.5,0.2,1,0.5,1.3s0.8,0.5,1.4,0.5
		c0.4,0,0.8-0.1,1.1-0.2s0.7-0.4,1.2-0.8L270,25.8z M271,23.1l0.7-0.5c0.5-0.4,0.7-0.8,0.7-1.1c0-0.3-0.1-0.6-0.4-0.8
		s-0.6-0.3-1-0.3s-0.7,0.1-0.9,0.3c-0.2,0.2-0.3,0.4-0.3,0.7c0,0.3,0.2,0.7,0.6,1.1L271,23.1z"/>
</g>
<text transform="matrix(0.7647 0 0 1 308.1006 61.8369)" class="st0 st2 st3">GROUP</text>
</svg>
